<mxfile host="app.diagrams.net" modified="2024-03-21T12:58:55.039Z" agent="Mozilla/5.0 (Windows NT 10.0; Win64; x64) AppleWebKit/537.36 (KHTML, like Gecko) Chrome/121.0.0.0 Safari/537.36 OPR/107.0.0.0" etag="cSHNHE4XkzhtlE51Tn0w" version="24.0.2" type="device">
  <diagram name="Strona-1" id="AWiner5oOUAS1Hgjm13_">
    <mxGraphModel dx="1009" dy="550" grid="1" gridSize="10" guides="1" tooltips="1" connect="1" arrows="1" fold="1" page="1" pageScale="1" pageWidth="827" pageHeight="1169" math="0" shadow="0">
      <root>
        <mxCell id="0" />
        <mxCell id="1" parent="0" />
        <mxCell id="OU6gtnCaueoLbP9GBH95-1" value="" style="strokeWidth=1;shadow=0;dashed=0;align=center;html=1;shape=mxgraph.mockup.containers.browserWindow;rSize=0;strokeColor=#666666;strokeColor2=#008cff;strokeColor3=#c4c4c4;mainText=,;recursiveResize=0;" vertex="1" parent="1">
          <mxGeometry x="120" y="70" width="560" height="485" as="geometry" />
        </mxCell>
        <mxCell id="OU6gtnCaueoLbP9GBH95-2" value="Page 1" style="strokeWidth=1;shadow=0;dashed=0;align=center;html=1;shape=mxgraph.mockup.containers.anchor;fontSize=17;fontColor=#666666;align=left;whiteSpace=wrap;" vertex="1" parent="OU6gtnCaueoLbP9GBH95-1">
          <mxGeometry x="60" y="12" width="110" height="26" as="geometry" />
        </mxCell>
        <mxCell id="OU6gtnCaueoLbP9GBH95-3" value="https://www.scrum-board.com/panel/tworzenie-tablicy/" style="strokeWidth=1;shadow=0;dashed=0;align=center;html=1;shape=mxgraph.mockup.containers.anchor;rSize=0;fontSize=17;fontColor=#666666;align=left;" vertex="1" parent="OU6gtnCaueoLbP9GBH95-1">
          <mxGeometry x="130" y="60" width="250" height="26" as="geometry" />
        </mxCell>
        <mxCell id="OU6gtnCaueoLbP9GBH95-4" value="" style="verticalLabelPosition=bottom;shadow=0;dashed=0;align=center;html=1;verticalAlign=top;strokeWidth=1;shape=mxgraph.mockup.containers.userMale;strokeColor=#666666;strokeColor2=#008cff;" vertex="1" parent="OU6gtnCaueoLbP9GBH95-1">
          <mxGeometry x="520" y="110" width="40" height="40" as="geometry" />
        </mxCell>
        <mxCell id="OU6gtnCaueoLbP9GBH95-26" value="Nazwa" style="strokeWidth=1;shadow=0;dashed=0;align=center;html=1;shape=mxgraph.mockup.forms.anchor;align=right;spacingRight=2;fontColor=#666666;" vertex="1" parent="OU6gtnCaueoLbP9GBH95-1">
          <mxGeometry x="60" y="200" width="50" height="18" as="geometry" />
        </mxCell>
        <mxCell id="OU6gtnCaueoLbP9GBH95-27" value="Przykładowa nazwa" style="strokeWidth=1;shadow=0;dashed=0;align=center;html=1;shape=mxgraph.mockup.forms.rrect;fillColor=#ffffff;rSize=0;fontColor=#666666;align=left;spacingLeft=3;strokeColor=#999999;" vertex="1" parent="OU6gtnCaueoLbP9GBH95-1">
          <mxGeometry x="120" y="200" width="350" height="18" as="geometry" />
        </mxCell>
        <mxCell id="OU6gtnCaueoLbP9GBH95-28" value="Opis" style="strokeWidth=1;shadow=0;dashed=0;align=center;html=1;shape=mxgraph.mockup.forms.anchor;align=right;spacingRight=2;fontColor=#666666;" vertex="1" parent="OU6gtnCaueoLbP9GBH95-1">
          <mxGeometry x="60" y="230" width="50" height="18" as="geometry" />
        </mxCell>
        <mxCell id="OU6gtnCaueoLbP9GBH95-29" value="Przykładowy opis" style="strokeWidth=1;shadow=0;dashed=0;align=center;html=1;shape=mxgraph.mockup.forms.rrect;fillColor=#ffffff;rSize=0;fontColor=#666666;align=left;spacingLeft=3;strokeColor=#999999;" vertex="1" parent="OU6gtnCaueoLbP9GBH95-1">
          <mxGeometry x="120" y="230" width="350" height="70" as="geometry" />
        </mxCell>
        <mxCell id="OU6gtnCaueoLbP9GBH95-37" value="&lt;font style=&quot;font-size: 16px;&quot;&gt;Tworzenie nowej tablicy&lt;/font&gt;" style="text;html=1;align=center;verticalAlign=middle;whiteSpace=wrap;rounded=0;" vertex="1" parent="OU6gtnCaueoLbP9GBH95-1">
          <mxGeometry x="120" y="160" width="190" height="30" as="geometry" />
        </mxCell>
        <mxCell id="OU6gtnCaueoLbP9GBH95-38" value="" style="strokeWidth=1;shadow=0;dashed=0;align=center;html=1;shape=mxgraph.mockup.forms.rrect;rSize=5;strokeColor=#999999;fillColor=#ffffff;" vertex="1" parent="OU6gtnCaueoLbP9GBH95-1">
          <mxGeometry x="120" y="310" width="150" height="90" as="geometry" />
        </mxCell>
        <mxCell id="OU6gtnCaueoLbP9GBH95-39" value="October 2014" style="strokeWidth=1;shadow=0;dashed=0;align=center;html=1;shape=mxgraph.mockup.forms.anchor;fontColor=#999999;" vertex="1" parent="OU6gtnCaueoLbP9GBH95-38">
          <mxGeometry x="28.125" y="4.114285714285714" width="93.75" height="10.285714285714286" as="geometry" />
        </mxCell>
        <mxCell id="OU6gtnCaueoLbP9GBH95-40" value="&lt;" style="strokeWidth=1;shadow=0;dashed=0;align=center;html=1;shape=mxgraph.mockup.forms.rrect;rSize=4;strokeColor=#999999;fontColor=#008cff;fontSize=19;fontStyle=1;" vertex="1" parent="OU6gtnCaueoLbP9GBH95-38">
          <mxGeometry x="7.5" y="4.114285714285714" width="23.4375" height="10.285714285714286" as="geometry" />
        </mxCell>
        <mxCell id="OU6gtnCaueoLbP9GBH95-41" value="&gt;" style="strokeWidth=1;shadow=0;dashed=0;align=center;html=1;shape=mxgraph.mockup.forms.rrect;rSize=4;strokeColor=#999999;fontColor=#008cff;fontSize=19;fontStyle=1;" vertex="1" parent="OU6gtnCaueoLbP9GBH95-38">
          <mxGeometry x="119.0625" y="4.114285714285714" width="23.4375" height="10.285714285714286" as="geometry" />
        </mxCell>
        <mxCell id="OU6gtnCaueoLbP9GBH95-42" value="Mo" style="strokeWidth=1;shadow=0;dashed=0;align=center;html=1;shape=mxgraph.mockup.forms.anchor;fontColor=#999999;" vertex="1" parent="OU6gtnCaueoLbP9GBH95-38">
          <mxGeometry x="9.375" y="14.4" width="18.75" height="10.285714285714286" as="geometry" />
        </mxCell>
        <mxCell id="OU6gtnCaueoLbP9GBH95-43" value="Tu" style="strokeWidth=1;shadow=0;dashed=0;align=center;html=1;shape=mxgraph.mockup.forms.anchor;fontColor=#999999;" vertex="1" parent="OU6gtnCaueoLbP9GBH95-38">
          <mxGeometry x="28.125" y="14.4" width="18.75" height="10.285714285714286" as="geometry" />
        </mxCell>
        <mxCell id="OU6gtnCaueoLbP9GBH95-44" value="We" style="strokeWidth=1;shadow=0;dashed=0;align=center;html=1;shape=mxgraph.mockup.forms.anchor;fontColor=#999999;" vertex="1" parent="OU6gtnCaueoLbP9GBH95-38">
          <mxGeometry x="46.875" y="14.4" width="18.75" height="10.285714285714286" as="geometry" />
        </mxCell>
        <mxCell id="OU6gtnCaueoLbP9GBH95-45" value="Th" style="strokeWidth=1;shadow=0;dashed=0;align=center;html=1;shape=mxgraph.mockup.forms.anchor;fontColor=#999999;" vertex="1" parent="OU6gtnCaueoLbP9GBH95-38">
          <mxGeometry x="65.625" y="14.4" width="18.75" height="10.285714285714286" as="geometry" />
        </mxCell>
        <mxCell id="OU6gtnCaueoLbP9GBH95-46" value="Fr" style="strokeWidth=1;shadow=0;dashed=0;align=center;html=1;shape=mxgraph.mockup.forms.anchor;fontColor=#999999;" vertex="1" parent="OU6gtnCaueoLbP9GBH95-38">
          <mxGeometry x="84.375" y="14.4" width="18.75" height="10.285714285714286" as="geometry" />
        </mxCell>
        <mxCell id="OU6gtnCaueoLbP9GBH95-47" value="Sa" style="strokeWidth=1;shadow=0;dashed=0;align=center;html=1;shape=mxgraph.mockup.forms.anchor;fontColor=#999999;" vertex="1" parent="OU6gtnCaueoLbP9GBH95-38">
          <mxGeometry x="103.125" y="14.4" width="18.75" height="10.285714285714286" as="geometry" />
        </mxCell>
        <mxCell id="OU6gtnCaueoLbP9GBH95-48" value="Su" style="strokeWidth=1;shadow=0;dashed=0;align=center;html=1;shape=mxgraph.mockup.forms.anchor;fontColor=#999999;" vertex="1" parent="OU6gtnCaueoLbP9GBH95-38">
          <mxGeometry x="121.87500000000001" y="14.4" width="18.75" height="10.285714285714286" as="geometry" />
        </mxCell>
        <mxCell id="OU6gtnCaueoLbP9GBH95-49" value="1" style="strokeWidth=1;shadow=0;dashed=0;align=center;html=1;shape=mxgraph.mockup.forms.rrect;rSize=0;strokeColor=#999999;fontColor=#999999;" vertex="1" parent="OU6gtnCaueoLbP9GBH95-38">
          <mxGeometry x="9.375" y="24.685714285714283" width="18.75" height="10.285714285714286" as="geometry" />
        </mxCell>
        <mxCell id="OU6gtnCaueoLbP9GBH95-50" value="2" style="strokeWidth=1;shadow=0;dashed=0;align=center;html=1;shape=mxgraph.mockup.forms.rrect;rSize=0;strokeColor=#999999;fontColor=#999999;" vertex="1" parent="OU6gtnCaueoLbP9GBH95-38">
          <mxGeometry x="28.125" y="24.685714285714283" width="18.75" height="10.285714285714286" as="geometry" />
        </mxCell>
        <mxCell id="OU6gtnCaueoLbP9GBH95-51" value="3" style="strokeWidth=1;shadow=0;dashed=0;align=center;html=1;shape=mxgraph.mockup.forms.rrect;rSize=0;strokeColor=#999999;fontColor=#999999;" vertex="1" parent="OU6gtnCaueoLbP9GBH95-38">
          <mxGeometry x="46.875" y="24.685714285714283" width="18.75" height="10.285714285714286" as="geometry" />
        </mxCell>
        <mxCell id="OU6gtnCaueoLbP9GBH95-52" value="4" style="strokeWidth=1;shadow=0;dashed=0;align=center;html=1;shape=mxgraph.mockup.forms.rrect;rSize=0;strokeColor=#999999;fontColor=#999999;" vertex="1" parent="OU6gtnCaueoLbP9GBH95-38">
          <mxGeometry x="65.625" y="24.685714285714283" width="18.75" height="10.285714285714286" as="geometry" />
        </mxCell>
        <mxCell id="OU6gtnCaueoLbP9GBH95-53" value="5" style="strokeWidth=1;shadow=0;dashed=0;align=center;html=1;shape=mxgraph.mockup.forms.rrect;rSize=0;strokeColor=#999999;fontColor=#999999;" vertex="1" parent="OU6gtnCaueoLbP9GBH95-38">
          <mxGeometry x="84.375" y="24.685714285714283" width="18.75" height="10.285714285714286" as="geometry" />
        </mxCell>
        <mxCell id="OU6gtnCaueoLbP9GBH95-54" value="6" style="strokeWidth=1;shadow=0;dashed=0;align=center;html=1;shape=mxgraph.mockup.forms.rrect;rSize=0;strokeColor=#999999;fontColor=#999999;" vertex="1" parent="OU6gtnCaueoLbP9GBH95-38">
          <mxGeometry x="103.125" y="24.685714285714283" width="18.75" height="10.285714285714286" as="geometry" />
        </mxCell>
        <mxCell id="OU6gtnCaueoLbP9GBH95-55" value="7" style="strokeWidth=1;shadow=0;dashed=0;align=center;html=1;shape=mxgraph.mockup.forms.rrect;rSize=0;strokeColor=#999999;fontColor=#999999;" vertex="1" parent="OU6gtnCaueoLbP9GBH95-38">
          <mxGeometry x="121.87500000000001" y="24.685714285714283" width="18.75" height="10.285714285714286" as="geometry" />
        </mxCell>
        <mxCell id="OU6gtnCaueoLbP9GBH95-56" value="8" style="strokeWidth=1;shadow=0;dashed=0;align=center;html=1;shape=mxgraph.mockup.forms.rrect;rSize=0;strokeColor=#999999;fontColor=#999999;" vertex="1" parent="OU6gtnCaueoLbP9GBH95-38">
          <mxGeometry x="9.375" y="34.97142857142857" width="18.75" height="10.285714285714286" as="geometry" />
        </mxCell>
        <mxCell id="OU6gtnCaueoLbP9GBH95-57" value="9" style="strokeWidth=1;shadow=0;dashed=0;align=center;html=1;shape=mxgraph.mockup.forms.rrect;rSize=0;strokeColor=#999999;fontColor=#999999;" vertex="1" parent="OU6gtnCaueoLbP9GBH95-38">
          <mxGeometry x="28.125" y="34.97142857142857" width="18.75" height="10.285714285714286" as="geometry" />
        </mxCell>
        <mxCell id="OU6gtnCaueoLbP9GBH95-58" value="10" style="strokeWidth=1;shadow=0;dashed=0;align=center;html=1;shape=mxgraph.mockup.forms.rrect;rSize=0;strokeColor=#999999;fontColor=#999999;" vertex="1" parent="OU6gtnCaueoLbP9GBH95-38">
          <mxGeometry x="46.875" y="34.97142857142857" width="18.75" height="10.285714285714286" as="geometry" />
        </mxCell>
        <mxCell id="OU6gtnCaueoLbP9GBH95-59" value="11" style="strokeWidth=1;shadow=0;dashed=0;align=center;html=1;shape=mxgraph.mockup.forms.rrect;rSize=0;strokeColor=#999999;fontColor=#999999;" vertex="1" parent="OU6gtnCaueoLbP9GBH95-38">
          <mxGeometry x="65.625" y="34.97142857142857" width="18.75" height="10.285714285714286" as="geometry" />
        </mxCell>
        <mxCell id="OU6gtnCaueoLbP9GBH95-60" value="12" style="strokeWidth=1;shadow=0;dashed=0;align=center;html=1;shape=mxgraph.mockup.forms.rrect;rSize=0;strokeColor=#999999;fontColor=#999999;" vertex="1" parent="OU6gtnCaueoLbP9GBH95-38">
          <mxGeometry x="84.375" y="34.97142857142857" width="18.75" height="10.285714285714286" as="geometry" />
        </mxCell>
        <mxCell id="OU6gtnCaueoLbP9GBH95-61" value="13" style="strokeWidth=1;shadow=0;dashed=0;align=center;html=1;shape=mxgraph.mockup.forms.rrect;rSize=0;strokeColor=#999999;fontColor=#999999;" vertex="1" parent="OU6gtnCaueoLbP9GBH95-38">
          <mxGeometry x="103.125" y="34.97142857142857" width="18.75" height="10.285714285714286" as="geometry" />
        </mxCell>
        <mxCell id="OU6gtnCaueoLbP9GBH95-62" value="14" style="strokeWidth=1;shadow=0;dashed=0;align=center;html=1;shape=mxgraph.mockup.forms.rrect;rSize=0;strokeColor=#999999;fontColor=#999999;" vertex="1" parent="OU6gtnCaueoLbP9GBH95-38">
          <mxGeometry x="121.87500000000001" y="34.97142857142857" width="18.75" height="10.285714285714286" as="geometry" />
        </mxCell>
        <mxCell id="OU6gtnCaueoLbP9GBH95-63" value="15" style="strokeWidth=1;shadow=0;dashed=0;align=center;html=1;shape=mxgraph.mockup.forms.rrect;rSize=0;strokeColor=#999999;fontColor=#999999;" vertex="1" parent="OU6gtnCaueoLbP9GBH95-38">
          <mxGeometry x="9.375" y="45.25714285714285" width="18.75" height="10.285714285714286" as="geometry" />
        </mxCell>
        <mxCell id="OU6gtnCaueoLbP9GBH95-64" value="16" style="strokeWidth=1;shadow=0;dashed=0;align=center;html=1;shape=mxgraph.mockup.forms.rrect;rSize=0;strokeColor=#999999;fontColor=#999999;" vertex="1" parent="OU6gtnCaueoLbP9GBH95-38">
          <mxGeometry x="28.125" y="45.25714285714285" width="18.75" height="10.285714285714286" as="geometry" />
        </mxCell>
        <mxCell id="OU6gtnCaueoLbP9GBH95-65" value="17" style="strokeWidth=1;shadow=0;dashed=0;align=center;html=1;shape=mxgraph.mockup.forms.rrect;rSize=0;strokeColor=#999999;fontColor=#999999;" vertex="1" parent="OU6gtnCaueoLbP9GBH95-38">
          <mxGeometry x="46.875" y="45.25714285714285" width="18.75" height="10.285714285714286" as="geometry" />
        </mxCell>
        <mxCell id="OU6gtnCaueoLbP9GBH95-66" value="18" style="strokeWidth=1;shadow=0;dashed=0;align=center;html=1;shape=mxgraph.mockup.forms.rrect;rSize=0;strokeColor=#999999;fontColor=#999999;" vertex="1" parent="OU6gtnCaueoLbP9GBH95-38">
          <mxGeometry x="65.625" y="45.25714285714285" width="18.75" height="10.285714285714286" as="geometry" />
        </mxCell>
        <mxCell id="OU6gtnCaueoLbP9GBH95-67" value="19" style="strokeWidth=1;shadow=0;dashed=0;align=center;html=1;shape=mxgraph.mockup.forms.rrect;rSize=0;strokeColor=#999999;fontColor=#999999;" vertex="1" parent="OU6gtnCaueoLbP9GBH95-38">
          <mxGeometry x="84.375" y="45.25714285714285" width="18.75" height="10.285714285714286" as="geometry" />
        </mxCell>
        <mxCell id="OU6gtnCaueoLbP9GBH95-68" value="20" style="strokeWidth=1;shadow=0;dashed=0;align=center;html=1;shape=mxgraph.mockup.forms.rrect;rSize=0;strokeColor=#999999;fontColor=#999999;" vertex="1" parent="OU6gtnCaueoLbP9GBH95-38">
          <mxGeometry x="103.125" y="45.25714285714285" width="18.75" height="10.285714285714286" as="geometry" />
        </mxCell>
        <mxCell id="OU6gtnCaueoLbP9GBH95-69" value="21" style="strokeWidth=1;shadow=0;dashed=0;align=center;html=1;shape=mxgraph.mockup.forms.rrect;rSize=0;strokeColor=#999999;fontColor=#999999;" vertex="1" parent="OU6gtnCaueoLbP9GBH95-38">
          <mxGeometry x="121.87500000000001" y="45.25714285714285" width="18.75" height="10.285714285714286" as="geometry" />
        </mxCell>
        <mxCell id="OU6gtnCaueoLbP9GBH95-70" value="22" style="strokeWidth=1;shadow=0;dashed=0;align=center;html=1;shape=mxgraph.mockup.forms.rrect;rSize=0;strokeColor=#999999;fontColor=#999999;" vertex="1" parent="OU6gtnCaueoLbP9GBH95-38">
          <mxGeometry x="9.375" y="55.54285714285715" width="18.75" height="10.285714285714286" as="geometry" />
        </mxCell>
        <mxCell id="OU6gtnCaueoLbP9GBH95-71" value="23" style="strokeWidth=1;shadow=0;dashed=0;align=center;html=1;shape=mxgraph.mockup.forms.rrect;rSize=0;strokeColor=#999999;fontColor=#999999;" vertex="1" parent="OU6gtnCaueoLbP9GBH95-38">
          <mxGeometry x="28.125" y="55.54285714285715" width="18.75" height="10.285714285714286" as="geometry" />
        </mxCell>
        <mxCell id="OU6gtnCaueoLbP9GBH95-72" value="25" style="strokeWidth=1;shadow=0;dashed=0;align=center;html=1;shape=mxgraph.mockup.forms.rrect;rSize=0;strokeColor=#999999;fontColor=#999999;" vertex="1" parent="OU6gtnCaueoLbP9GBH95-38">
          <mxGeometry x="65.625" y="55.54285714285715" width="18.75" height="10.285714285714286" as="geometry" />
        </mxCell>
        <mxCell id="OU6gtnCaueoLbP9GBH95-73" value="26" style="strokeWidth=1;shadow=0;dashed=0;align=center;html=1;shape=mxgraph.mockup.forms.rrect;rSize=0;strokeColor=#999999;fontColor=#999999;" vertex="1" parent="OU6gtnCaueoLbP9GBH95-38">
          <mxGeometry x="84.375" y="55.54285714285715" width="18.75" height="10.285714285714286" as="geometry" />
        </mxCell>
        <mxCell id="OU6gtnCaueoLbP9GBH95-74" value="27" style="strokeWidth=1;shadow=0;dashed=0;align=center;html=1;shape=mxgraph.mockup.forms.rrect;rSize=0;strokeColor=#999999;fontColor=#999999;" vertex="1" parent="OU6gtnCaueoLbP9GBH95-38">
          <mxGeometry x="103.125" y="55.54285714285715" width="18.75" height="10.285714285714286" as="geometry" />
        </mxCell>
        <mxCell id="OU6gtnCaueoLbP9GBH95-75" value="28" style="strokeWidth=1;shadow=0;dashed=0;align=center;html=1;shape=mxgraph.mockup.forms.rrect;rSize=0;strokeColor=#999999;fontColor=#999999;" vertex="1" parent="OU6gtnCaueoLbP9GBH95-38">
          <mxGeometry x="121.87500000000001" y="55.54285714285715" width="18.75" height="10.285714285714286" as="geometry" />
        </mxCell>
        <mxCell id="OU6gtnCaueoLbP9GBH95-76" value="29" style="strokeWidth=1;shadow=0;dashed=0;align=center;html=1;shape=mxgraph.mockup.forms.rrect;rSize=0;strokeColor=#999999;fontColor=#999999;" vertex="1" parent="OU6gtnCaueoLbP9GBH95-38">
          <mxGeometry x="9.375" y="65.82857142857142" width="18.75" height="10.285714285714286" as="geometry" />
        </mxCell>
        <mxCell id="OU6gtnCaueoLbP9GBH95-77" value="30" style="strokeWidth=1;shadow=0;dashed=0;align=center;html=1;shape=mxgraph.mockup.forms.rrect;rSize=0;strokeColor=#999999;fontColor=#999999;" vertex="1" parent="OU6gtnCaueoLbP9GBH95-38">
          <mxGeometry x="28.125" y="65.82857142857142" width="18.75" height="10.285714285714286" as="geometry" />
        </mxCell>
        <mxCell id="OU6gtnCaueoLbP9GBH95-78" value="31" style="strokeWidth=1;shadow=0;dashed=0;align=center;html=1;shape=mxgraph.mockup.forms.rrect;rSize=0;strokeColor=#999999;fontColor=#999999;" vertex="1" parent="OU6gtnCaueoLbP9GBH95-38">
          <mxGeometry x="46.875" y="65.82857142857142" width="18.75" height="10.285714285714286" as="geometry" />
        </mxCell>
        <mxCell id="OU6gtnCaueoLbP9GBH95-79" value="1" style="strokeWidth=1;shadow=0;dashed=0;align=center;html=1;shape=mxgraph.mockup.forms.rrect;rSize=0;strokeColor=#999999;fontColor=#999999;fillColor=#ddeeff;" vertex="1" parent="OU6gtnCaueoLbP9GBH95-38">
          <mxGeometry x="65.625" y="65.82857142857142" width="18.75" height="10.285714285714286" as="geometry" />
        </mxCell>
        <mxCell id="OU6gtnCaueoLbP9GBH95-80" value="2" style="strokeWidth=1;shadow=0;dashed=0;align=center;html=1;shape=mxgraph.mockup.forms.rrect;rSize=0;strokeColor=#999999;fontColor=#999999;fillColor=#ddeeff;" vertex="1" parent="OU6gtnCaueoLbP9GBH95-38">
          <mxGeometry x="84.375" y="65.82857142857142" width="18.75" height="10.285714285714286" as="geometry" />
        </mxCell>
        <mxCell id="OU6gtnCaueoLbP9GBH95-81" value="3" style="strokeWidth=1;shadow=0;dashed=0;align=center;html=1;shape=mxgraph.mockup.forms.rrect;rSize=0;strokeColor=#999999;fontColor=#999999;fillColor=#ddeeff;" vertex="1" parent="OU6gtnCaueoLbP9GBH95-38">
          <mxGeometry x="103.125" y="65.82857142857142" width="18.75" height="10.285714285714286" as="geometry" />
        </mxCell>
        <mxCell id="OU6gtnCaueoLbP9GBH95-82" value="4" style="strokeWidth=1;shadow=0;dashed=0;align=center;html=1;shape=mxgraph.mockup.forms.rrect;rSize=0;strokeColor=#999999;fontColor=#999999;fillColor=#ddeeff;" vertex="1" parent="OU6gtnCaueoLbP9GBH95-38">
          <mxGeometry x="121.87500000000001" y="65.82857142857142" width="18.75" height="10.285714285714286" as="geometry" />
        </mxCell>
        <mxCell id="OU6gtnCaueoLbP9GBH95-83" value="5" style="strokeWidth=1;shadow=0;dashed=0;align=center;html=1;shape=mxgraph.mockup.forms.rrect;rSize=0;strokeColor=#999999;fontColor=#999999;fillColor=#ddeeff;" vertex="1" parent="OU6gtnCaueoLbP9GBH95-38">
          <mxGeometry x="9.375" y="76.11428571428571" width="18.75" height="10.285714285714286" as="geometry" />
        </mxCell>
        <mxCell id="OU6gtnCaueoLbP9GBH95-84" value="6" style="strokeWidth=1;shadow=0;dashed=0;align=center;html=1;shape=mxgraph.mockup.forms.rrect;rSize=0;strokeColor=#999999;fontColor=#999999;fillColor=#ddeeff;" vertex="1" parent="OU6gtnCaueoLbP9GBH95-38">
          <mxGeometry x="28.125" y="76.11428571428571" width="18.75" height="10.285714285714286" as="geometry" />
        </mxCell>
        <mxCell id="OU6gtnCaueoLbP9GBH95-85" value="7" style="strokeWidth=1;shadow=0;dashed=0;align=center;html=1;shape=mxgraph.mockup.forms.rrect;rSize=0;strokeColor=#999999;fontColor=#999999;fillColor=#ddeeff;" vertex="1" parent="OU6gtnCaueoLbP9GBH95-38">
          <mxGeometry x="46.875" y="76.11428571428571" width="18.75" height="10.285714285714286" as="geometry" />
        </mxCell>
        <mxCell id="OU6gtnCaueoLbP9GBH95-86" value="8" style="strokeWidth=1;shadow=0;dashed=0;align=center;html=1;shape=mxgraph.mockup.forms.rrect;rSize=0;strokeColor=#999999;fontColor=#999999;fillColor=#ddeeff;" vertex="1" parent="OU6gtnCaueoLbP9GBH95-38">
          <mxGeometry x="65.625" y="76.11428571428571" width="18.75" height="10.285714285714286" as="geometry" />
        </mxCell>
        <mxCell id="OU6gtnCaueoLbP9GBH95-87" value="9" style="strokeWidth=1;shadow=0;dashed=0;align=center;html=1;shape=mxgraph.mockup.forms.rrect;rSize=0;strokeColor=#999999;fontColor=#999999;fillColor=#ddeeff;" vertex="1" parent="OU6gtnCaueoLbP9GBH95-38">
          <mxGeometry x="84.375" y="76.11428571428571" width="18.75" height="10.285714285714286" as="geometry" />
        </mxCell>
        <mxCell id="OU6gtnCaueoLbP9GBH95-88" value="10" style="strokeWidth=1;shadow=0;dashed=0;align=center;html=1;shape=mxgraph.mockup.forms.rrect;rSize=0;strokeColor=#999999;fontColor=#999999;fillColor=#ddeeff;" vertex="1" parent="OU6gtnCaueoLbP9GBH95-38">
          <mxGeometry x="103.125" y="76.11428571428571" width="18.75" height="10.285714285714286" as="geometry" />
        </mxCell>
        <mxCell id="OU6gtnCaueoLbP9GBH95-89" value="11" style="strokeWidth=1;shadow=0;dashed=0;align=center;html=1;shape=mxgraph.mockup.forms.rrect;rSize=0;strokeColor=#999999;fontColor=#999999;fillColor=#ddeeff;" vertex="1" parent="OU6gtnCaueoLbP9GBH95-38">
          <mxGeometry x="121.87500000000001" y="76.11428571428571" width="18.75" height="10.285714285714286" as="geometry" />
        </mxCell>
        <mxCell id="OU6gtnCaueoLbP9GBH95-90" value="24" style="strokeWidth=1;shadow=0;dashed=0;align=center;html=1;shape=mxgraph.mockup.forms.rrect;rSize=0;strokeColor=#ff0000;fontColor=#ffffff;strokeWidth=2;fillColor=#008cff;" vertex="1" parent="OU6gtnCaueoLbP9GBH95-38">
          <mxGeometry x="46.875" y="55.54285714285715" width="18.75" height="10.285714285714286" as="geometry" />
        </mxCell>
        <mxCell id="OU6gtnCaueoLbP9GBH95-91" value="termin ukończenia" style="strokeWidth=1;shadow=0;dashed=0;align=center;html=1;shape=mxgraph.mockup.forms.anchor;align=right;spacingRight=2;fontColor=#666666;" vertex="1" parent="OU6gtnCaueoLbP9GBH95-1">
          <mxGeometry x="60" y="310" width="50" height="10" as="geometry" />
        </mxCell>
        <mxCell id="OU6gtnCaueoLbP9GBH95-92" value="Stwórz" style="strokeWidth=1;shadow=0;dashed=0;align=center;html=1;shape=mxgraph.mockup.buttons.button;strokeColor=#666666;fontColor=#ffffff;mainText=;buttonStyle=round;fontSize=17;fontStyle=1;fillColor=#008cff;whiteSpace=wrap;" vertex="1" parent="OU6gtnCaueoLbP9GBH95-1">
          <mxGeometry x="340" y="420" width="130" height="40" as="geometry" />
        </mxCell>
        <mxCell id="OU6gtnCaueoLbP9GBH95-93" value="powrót do panelu" style="strokeWidth=1;shadow=0;dashed=0;align=center;html=1;shape=mxgraph.mockup.buttons.button;strokeColor=#666666;fontColor=#ffffff;mainText=;buttonStyle=round;fontSize=17;fontStyle=1;fillColor=#008cff;whiteSpace=wrap;" vertex="1" parent="OU6gtnCaueoLbP9GBH95-1">
          <mxGeometry y="115" width="110" height="30" as="geometry" />
        </mxCell>
      </root>
    </mxGraphModel>
  </diagram>
</mxfile>
